# xmcd
#
# Track frame offsets:
#	150
#	15443
#	47232
#	80859
#
# Disc length: 1555 seconds
#
# Revision: 1
# Processed by: cddbd v1.5.2PL0 Copyright (c) Steve Scherf et al.
# Submitted via: audiograbber 1.83.01
#
DISCID=2a061104
DTITLE=Dallas Superstars - Ready To Go [CDM)
DYEAR=2004
DGENRE=Dance
TTITLE0=Ready To Go (Radio Edit)
TTITLE1=Ready To Go (Long Version)
TTITLE2=Ready To Go (Bostik Remix)
TTITLE3=Ready To Go (Arrants Remix)
EXTD=TR.
EXTT0=
EXTT1=
EXTT2=
EXTT3=
PLAYORDER=
